<?xml version="1.0" encoding="UTF-8" standalone="no"?>
<!DOCTYPE svg PUBLIC "-//W3C//DTD SVG 1.1//EN" "http://www.w3.org/Graphics/SVG/1.1/DTD/svg11.dtd">
<svg version="1.1" xmlns="http://www.w3.org/2000/svg" xmlns:xlink="http://www.w3.org/1999/xlink" preserveAspectRatio="xMidYMid meet" viewBox="0 0 640 640" width="640" height="640"><defs><path d="M449.38 24.79L641.98 24.79L641.98 0L6.92 0L6.92 24.79L208.95 24.79L243.39 36.86L414.94 36.86L449.38 24.79Z" id="c42HSgFxQ"></path><linearGradient id="gradientc1tZZVtil" gradientUnits="userSpaceOnUse" x1="6.92" y1="4.88" x2="642.56" y2="4.88"><stop style="stop-color: #2d3090;stop-opacity: 1" offset="0%"></stop><stop style="stop-color: #474aaa;stop-opacity: 1" offset="23.043478260869566%"></stop><stop style="stop-color: #6063c3;stop-opacity: 1" offset="54.78260869565217%"></stop><stop style="stop-color: #474aaa;stop-opacity: 1" offset="77.70289997926982%"></stop><stop style="stop-color: #2d3090;stop-opacity: 1" offset="100%"></stop></linearGradient><path d="M449.38 20.83L641.98 20.83L641.98 -3.96L6.92 -3.96L6.92 20.83L208.95 20.83L243.39 32.9L414.94 32.9L449.38 20.83Z" id="gdpu4EaQt"></path><mask id="maskcGiqoEMpf" x="4.92" y="-5.96" width="639.06" height="40.86" maskUnits="userSpaceOnUse"><rect x="4.92" y="-5.96" width="639.06" height="40.86" fill="white"></rect><use xlink:href="#gdpu4EaQt" opacity="1" fill="black"></use></mask></defs><g><g><g><g><filter id="shadow7646837" x="-118.08" y="-125" width="886.06" height="296.86" filterUnits="userSpaceOnUse" primitiveUnits="userSpaceOnUse"><feFlood></feFlood><feComposite in2="SourceAlpha" operator="in"></feComposite><feGaussianBlur stdDeviation="7.07"></feGaussianBlur><feOffset dx="1" dy="10" result="afterOffset"></feOffset><feFlood flood-color="#2d3090" flood-opacity="0.5"></feFlood><feComposite in2="afterOffset" operator="in"></feComposite><feMorphology operator="dilate" radius="10"></feMorphology><feComposite in2="SourceAlpha" operator="out"></feComposite></filter><path d="M449.38 24.79L641.98 24.79L641.98 0L6.92 0L6.92 24.79L208.95 24.79L243.39 36.86L414.94 36.86L449.38 24.79Z" id="b2JWpstiKv" fill="white" fill-opacity="1" filter="url(#shadow7646837)"></path></g><use xlink:href="#c42HSgFxQ" opacity="1" fill="url(#gradientc1tZZVtil)"></use><g><use xlink:href="#c42HSgFxQ" opacity="1" fill-opacity="0" stroke="#000000" stroke-width="1" stroke-opacity="0"></use></g></g><g><use xlink:href="#gdpu4EaQt" opacity="1" fill="#000000" fill-opacity="0"></use><g mask="url(#maskcGiqoEMpf)"><use xlink:href="#gdpu4EaQt" opacity="1" fill-opacity="0" stroke="#ffffff" stroke-width="2" stroke-opacity="0.99"></use></g></g></g></g></svg>