<?xml version="1.0" encoding="UTF-8" standalone="no"?>
<!DOCTYPE svg PUBLIC "-//W3C//DTD SVG 1.1//EN" "http://www.w3.org/Graphics/SVG/1.1/DTD/svg11.dtd">
<svg version="1.1" xmlns="http://www.w3.org/2000/svg" xmlns:xlink="http://www.w3.org/1999/xlink" preserveAspectRatio="xMidYMid meet" viewBox="0 0 640 640" width="640" height="640"><defs><path d="M641.98 24.79L641.98 0L15.83 0L15.83 24.79L215.03 24.79L248.98 36.86L418.13 36.86L452.08 24.79L641.98 24.79Z" id="cDRiWj1sK"></path><linearGradient id="gradientacTVRXwSQ" gradientUnits="userSpaceOnUse" x1="15.83" y1="4.88" x2="642.55" y2="4.88"><stop style="stop-color: #2d3090;stop-opacity: 1" offset="0%"></stop><stop style="stop-color: #474aaa;stop-opacity: 1" offset="23.043478260869566%"></stop><stop style="stop-color: #6063c3;stop-opacity: 1" offset="54.78260869565217%"></stop><stop style="stop-color: #474aaa;stop-opacity: 1" offset="77.70289997926982%"></stop><stop style="stop-color: #2d3090;stop-opacity: 1" offset="100%"></stop></linearGradient><path d="M641.98 24.79L641.98 0L0 0L0 24.79L204.23 24.79L239.05 36.86L412.47 36.86L447.28 24.79L641.98 24.79Z" id="awXqMc3oJ"></path><linearGradient id="gradientajOz9Vr0u" gradientUnits="userSpaceOnUse" x1="0" y1="4.88" x2="642.57" y2="4.88"><stop style="stop-color: #2d3090;stop-opacity: 1" offset="0%"></stop><stop style="stop-color: #474aaa;stop-opacity: 1" offset="23.043478260869566%"></stop><stop style="stop-color: #6063c3;stop-opacity: 1" offset="54.78260869565217%"></stop><stop style="stop-color: #474aaa;stop-opacity: 1" offset="77.70289997926982%"></stop><stop style="stop-color: #2d3090;stop-opacity: 1" offset="100%"></stop></linearGradient><path d="M646.93 20.83L646.93 -3.96L-0.99 -3.96L-0.99 20.83L205.13 20.83L240.27 32.9L415.29 32.9L450.43 20.83L646.93 20.83Z" id="d3VqTQxowB"></path></defs><g><g><g><use xlink:href="#cDRiWj1sK" opacity="1" fill="url(#gradientacTVRXwSQ)"></use><g><use xlink:href="#cDRiWj1sK" opacity="1" fill-opacity="0" stroke="#000000" stroke-width="1" stroke-opacity="0"></use></g></g><g><g><filter id="shadow15306361" x="-46" y="-46" width="734.98" height="136.86" filterUnits="userSpaceOnUse" primitiveUnits="userSpaceOnUse"><feFlood></feFlood><feComposite in2="SourceAlpha" operator="in"></feComposite><feGaussianBlur stdDeviation="4"></feGaussianBlur><feOffset dx="1" dy="8" result="afterOffset"></feOffset><feFlood flood-color="#2d3090" flood-opacity="0.5"></feFlood><feComposite in2="afterOffset" operator="in"></feComposite><feMorphology operator="dilate" radius="1"></feMorphology><feComposite in2="SourceAlpha" operator="out"></feComposite></filter><path d="M641.98 24.79L641.98 0L0 0L0 24.79L204.23 24.79L239.05 36.86L412.47 36.86L447.28 24.79L641.98 24.79Z" id="cSHKaQUkw" fill="white" fill-opacity="1" filter="url(#shadow15306361)"></path></g><use xlink:href="#awXqMc3oJ" opacity="1" fill="url(#gradientajOz9Vr0u)"></use><g><use xlink:href="#awXqMc3oJ" opacity="1" fill-opacity="0" stroke="#000000" stroke-width="1" stroke-opacity="0"></use></g></g><g><use xlink:href="#d3VqTQxowB" opacity="1" fill="#000000" fill-opacity="0"></use><g><use xlink:href="#d3VqTQxowB" opacity="1" fill-opacity="0" stroke="#ffffff" stroke-width="1" stroke-opacity="1"></use></g></g></g></g></svg>